<svg version="1.1" viewBox="0 0 44.443 40" xmlns="http://www.w3.org/2000/svg">
 <path d="m3.4922 0c-1.9351 0-3.4922 1.5571-3.4922 3.4922v33.016c0 1.9351 1.557 3.4922 3.4922 3.4922h37.459c1.9351 0 3.4922-1.5571 3.4922-3.4922v-33.016c0-1.9351-1.5571-3.4922-3.4922-3.4922zm1.8535 2.9102h33.752c1.1697 0 2.1113 0.94166 2.1113 2.1113v29.955c0 1.1697-0.94166 2.1113-2.1113 2.1113h-33.752c-1.1697 0-2.1113-0.94166-2.1113-2.1113v-29.955c0-1.1697 0.94166-2.1113 2.1113-2.1113z" />
 <path d="m6.8828 4.7578c-0.88398 0-1.5957 0.71173-1.5957 1.5957v27.293c0 0.88398 0.71172 1.5957 1.5957 1.5957h30.678c0.88398 0 1.5957-0.71173 1.5957-1.5957v-27.293c0-0.88398-0.71173-1.5957-1.5957-1.5957zm7.0195 3.8184c2.2426 4.86e-5 4.0605 1.818 4.0606 4.0605-5e-5 2.2426-1.818 4.0605-4.0606 4.0605-2.2426-5.4e-5 -4.0605-1.818-4.0605-4.0605 5e-5 -2.2426 1.818-4.0605 4.0605-4.0605zm12.98 5.1094 4.9492 6.4629 2.1621 7.7676 2.573 4.5227-28.332-2.2e-4 5.4442-6.6611 7.0859-4.1758z" />
</svg>